<svg width="24" height="23" viewBox="0 0 24 23" fill="none" xmlns="http://www.w3.org/2000/svg">
<path d="M22.7735 4.16875L12.2735 0.668745C12.0953 0.613918 11.9048 0.613918 11.7266 0.668745L1.23752 4.16875H1.21565L1.10627 4.22343H1.09534L0.98596 4.28906C0.98596 4.3 0.975023 4.3 0.964085 4.31093L0.876585 4.3875L0.800023 4.475C0.800023 4.48593 0.789085 4.48593 0.789085 4.49687L0.72346 4.59531C0.72346 4.60625 0.72346 4.60625 0.712523 4.61718L0.668773 4.71562L0.63596 4.83593V4.86875C0.625172 4.9116 0.621477 4.95594 0.625023 5V13.75C0.625023 13.9821 0.71721 14.2046 0.881304 14.3687C1.0454 14.5328 1.26796 14.625 1.50002 14.625C1.73209 14.625 1.95465 14.5328 2.11874 14.3687C2.28284 14.2046 2.37502 13.9821 2.37502 13.75V6.21406L6.05002 7.43906C5.3596 8.54418 4.99561 9.82194 5.00002 11.125C5.00043 12.3101 5.30169 13.4757 5.8756 14.5125C6.4495 15.5494 7.27725 16.4235 8.28127 17.0531C6.19483 17.8424 4.41362 19.2751 3.19533 21.1437C3.07116 21.3401 3.02909 21.5774 3.07819 21.8045C3.12729 22.0316 3.26363 22.2303 3.45784 22.3578C3.55314 22.421 3.66003 22.4646 3.77231 22.4861C3.88459 22.5076 4.00003 22.5067 4.11193 22.4833C4.22384 22.4599 4.32999 22.4145 4.42423 22.3498C4.51848 22.2851 4.59894 22.2023 4.66096 22.1062C5.45516 20.8829 6.54258 19.8775 7.82432 19.1814C9.10607 18.4854 10.5415 18.1208 12 18.1208C13.4586 18.1208 14.894 18.4854 16.1757 19.1814C17.4575 19.8775 18.5449 20.8829 19.3391 22.1062C19.419 22.2275 19.5278 22.327 19.6557 22.3958C19.7836 22.4645 19.9267 22.5003 20.0719 22.5C20.2395 22.5018 20.4037 22.4521 20.5422 22.3578C20.7364 22.2303 20.8728 22.0316 20.9219 21.8045C20.971 21.5774 20.9289 21.3401 20.8047 21.1437C19.5864 19.2751 17.8052 17.8424 15.7188 17.0531C16.7228 16.4235 17.5505 15.5494 18.1244 14.5125C18.6984 13.4757 18.9996 12.3101 19 11.125C19.0044 9.82194 18.6404 8.54418 17.95 7.43906L22.7735 5.83125C22.9485 5.77371 23.1009 5.66237 23.209 5.5131C23.3171 5.36384 23.3752 5.18427 23.3752 5C23.3752 4.81572 23.3171 4.63615 23.209 4.48689C23.1009 4.33762 22.9485 4.22628 22.7735 4.16875ZM17.25 11.125C17.25 12.5174 16.6969 13.8527 15.7123 14.8373C14.7278 15.8219 13.3924 16.375 12 16.375C10.6076 16.375 9.27228 15.8219 8.28771 14.8373C7.30315 13.8527 6.75002 12.5174 6.75002 11.125C6.75213 10.0047 7.10814 8.91372 7.76721 8.00781L11.7266 9.33125C11.9042 9.38967 12.0958 9.38967 12.2735 9.33125L16.2328 8.00781C16.8919 8.91372 17.2479 10.0047 17.25 11.125ZM16.2328 6.17031H16.2219L12 7.58125L7.77815 6.17031H7.76721L4.26721 5L12 2.41875L19.7328 5L16.2328 6.17031Z" fill="#B0B0B0"/>
</svg>
