<svg width="20" height="20" viewBox="0 0 20 20" fill="none" xmlns="http://www.w3.org/2000/svg">
<path d="M2.50004 15.8333V4.74993C2.49999 4.57887 2.55258 4.41194 2.65068 4.2718C2.74878 4.13166 2.88763 4.0251 3.04837 3.9666L11.1075 1.0366C11.1705 1.01369 11.238 1.00629 11.3045 1.01504C11.3709 1.02379 11.4342 1.04843 11.4891 1.08687C11.544 1.1253 11.5888 1.1764 11.6197 1.23583C11.6506 1.29526 11.6667 1.36127 11.6667 1.42827V5.55577L16.93 7.30993C17.096 7.36522 17.2404 7.47136 17.3427 7.61331C17.4451 7.75525 17.5001 7.9258 17.5 8.10077V15.8333H19.1667V17.4999H0.833374V15.8333H2.50004ZM4.16671 15.8333H10V3.21243L4.16671 5.3341V15.8333ZM15.8334 15.8333V8.7016L11.6667 7.31243V15.8333H15.8334Z" fill="white"/>
</svg>
