<svg width="20" height="29" viewBox="0 0 20 29" fill="none" xmlns="http://www.w3.org/2000/svg">
<path d="M18.3333 8.99999C18.3333 6.69832 17.4 4.61499 15.8933 3.10832C14.385 1.59999 12.3017 0.666656 10 0.666656C7.69833 0.666656 5.615 1.59999 4.10667 3.10832C2.6 4.61499 1.66667 6.69832 1.66667 8.99999C1.66667 11.3017 2.6 13.385 4.10667 14.8917C5.615 16.4 7.69833 17.3333 10 17.3333C12.3017 17.3333 14.385 16.4 15.8933 14.8917C16.6681 14.1188 17.2825 13.2004 17.7012 12.1893C18.12 11.1782 18.3348 10.0944 18.3333 8.99999ZM0 25.6667C0 27.3333 3.75 29 10 29C15.8633 29 20 27.3333 20 25.6667C20 22.3333 16.0767 19 10 19C3.75 19 0 22.3333 0 25.6667Z" fill="#00FFF5"/>
</svg>
